<?xml version="1.0" encoding="UTF-8" standalone="no"?><!DOCTYPE svg PUBLIC "-//W3C//DTD SVG 1.1//EN" "http://www.w3.org/Graphics/SVG/1.1/DTD/svg11.dtd"><svg width="100%" height="100%" viewBox="0 0 6396 6396" version="1.1" xmlns="http://www.w3.org/2000/svg" xmlns:xlink="http://www.w3.org/1999/xlink" xml:space="preserve" xmlns:serif="http://www.serif.com/" style="fill-rule:evenodd;clip-rule:evenodd;stroke-linejoin:round;stroke-miterlimit:1.41421;"><g><path d="M3197.92,1808.17c-253.021,0 -502.275,-75.167 -720.809,-217.38c-210.925,-137.258 -390.212,-334.416 -518.475,-570.158l91.5,-49.783c120.025,220.596 287.317,404.779 483.792,532.633c201.588,131.183 431.192,200.521 663.992,200.521l0,104.167Z" style="fill:#030404;fill-rule:nonzero;"/><path d="M2808.55,4052.18l0,1552.61c-403.862,-64.834 -774.425,-229 -1086.21,-466.417l1086.21,-1086.19Zm-1622.97,521.65c-268.375,-391.666 -425.858,-865.233 -425.858,-1375.92c0,-1214 887.408,-2220.38 2048.82,-2406.89l0,2159.84l-1622.97,1622.97Zm2401.71,-1623.05l0,-2159.76c1161.41,186.508 2048.83,1192.89 2048.83,2406.89c0,510.641 -157.5,984.208 -425.875,1375.88l-1622.95,-1623.01Zm0,2654.01l0,-1552.7l1086.25,1086.24c-311.796,237.459 -682.367,401.625 -1086.25,466.459Zm2743.58,-3051.26c-42.042,-205.37 -104.75,-407.383 -186.375,-600.421c-80.167,-189.512 -179.375,-372.291 -294.875,-543.254c-114.375,-169.312 -245.75,-328.521 -390.459,-473.212c-144.666,-144.683 -303.874,-276.046 -473.208,-390.429c-170.958,-115.505 -353.708,-214.709 -543.25,-294.863c-193.041,-81.65 -395.037,-144.358 -600.408,-186.383c-210.671,-43.109 -427.479,-64.971 -644.383,-64.971c-216.909,0 -433.709,21.862 -644.384,64.971c-205.37,42.025 -407.383,104.733 -600.42,186.383c-189.513,80.154 -372.288,179.358 -543.255,294.863c-169.312,114.383 -328.529,245.746 -473.208,390.429c-144.688,144.691 -276.05,303.9 -390.433,473.212c-115.504,170.963 -214.713,353.742 -294.871,543.254c-81.646,193.038 -144.354,395.051 -186.379,600.421c-43.113,210.675 -64.967,427.475 -64.967,644.384c0,216.908 21.854,433.708 64.967,644.379c42.025,205.375 104.733,407.371 186.379,600.412c80.158,189.542 179.367,372.292 294.871,543.25c114.383,169.334 245.745,328.542 390.433,473.209c144.679,144.708 303.896,276.083 473.208,390.458c170.967,115.5 353.742,214.708 543.255,294.875c193.037,81.625 395.05,144.333 600.42,186.375c210.675,43.083 427.475,64.958 644.384,64.958c216.904,0 433.712,-21.875 644.383,-64.958c205.371,-42.042 407.367,-104.75 600.408,-186.375c189.542,-80.167 372.292,-179.375 543.25,-294.875c169.334,-114.375 328.542,-245.75 473.208,-390.458c144.709,-144.667 276.084,-303.875 390.459,-473.209c115.5,-170.958 214.708,-353.708 294.875,-543.25c81.625,-193.041 144.333,-395.037 186.375,-600.412c43.083,-210.671 64.958,-427.471 64.958,-644.379c0,-216.909 -21.875,-433.709 -64.958,-644.384Z" style="fill:#030404;fill-rule:nonzero;"/><path d="M2991.56,4910.54c-54.708,0 -110.17,-1.959 -164.841,-5.834c-258.13,-18.25 -508.296,-78.541 -704.421,-169.791c-184.629,-85.875 -263.746,-174.167 -260.254,-223.542l183.708,-2597.54c2.8,-39.542 66.171,-107.038 235.567,-167.121c167.891,-59.55 384.533,-92.346 610.016,-92.346c54.684,0 110.146,1.962 164.846,5.829c258.125,18.258 508.296,78.558 704.425,169.796c184.625,85.887 263.742,174.154 260.254,223.529l-183.708,2597.56c-2.8,39.542 -66.171,107.042 -235.571,167.125c-167.879,59.542 -384.5,92.334 -609.946,92.334c-0.029,0 -0.045,0 -0.075,0Z" style="fill:#f60e33;fill-rule:nonzero;"/><path d="M2891.34,1612.7c-491.251,0 -876.901,153.25 -887.15,298.196l-183.709,2597.56c-11.392,161.084 434.934,397.625 1003.3,437.834c56.959,4 113.067,5.916 167.783,5.916c491.246,0 876.896,-153.25 887.146,-298.208l183.709,-2597.54c11.396,-161.088 -434.934,-397.63 -1003.3,-437.825c-56.963,-4.03 -113.071,-5.934 -167.783,-5.934Zm-0.005,83.333c53.705,0 108.175,1.925 161.909,5.725c249.512,17.646 500.933,78.155 689.787,166.013c81.583,37.954 147.546,79.15 190.754,119.133c38.317,35.459 45.88,58.425 45.509,63.675l-183.709,2597.54c-0.821,11.625 -40.4,71.375 -207.929,130.792c-163.537,58 -375.237,89.958 -596.092,89.958c-53.704,0 -108.174,-1.917 -161.908,-5.708c-249.512,-17.667 -500.929,-78.167 -689.787,-166.042c-81.584,-37.917 -147.546,-79.125 -190.755,-119.125c-38.312,-35.458 -45.879,-58.417 -45.508,-63.667l183.708,-2597.56c0.821,-11.608 40.405,-71.367 207.934,-130.788c163.537,-58.004 375.233,-89.95 596.087,-89.95Z" style="fill:#231f20;fill-rule:nonzero;"/><path d="M3158.57,1926.65c-4.713,66.621 -62.538,116.813 -129.159,112.1c-66.621,-4.713 -116.808,-62.542 -112.1,-129.162c4.713,-66.621 62.542,-116.809 129.163,-112.101c66.621,4.713 116.808,62.542 112.096,129.163Z" style="fill:#231f20;fill-rule:nonzero;"/><path d="M3332.75,4746.25c-206.892,0 -403.471,-28.375 -553.529,-79.875c-124.775,-42.833 -208.762,-101.292 -213.958,-148.917l-282.296,-2588.71c-5.367,-49.204 70.341,-140.412 251.567,-233.258c192.516,-98.625 440.212,-168.392 697.458,-196.446c83.708,-9.13 168.441,-13.754 251.85,-13.754c206.891,0 403.475,28.362 553.529,79.871c124.783,42.829 208.75,101.291 213.958,148.937l282.292,2588.7c5.375,49.204 -70.334,140.412 -251.546,233.246c-192.529,98.625 -440.225,168.416 -697.471,196.458c-83.712,9.125 -168.445,13.75 -251.854,13.75Z" style="fill:#f60e33;fill-rule:nonzero;"/><path d="M3483.85,1443.63c-82.458,0 -168.383,4.404 -256.375,14c-566.421,61.771 -1003.44,315.104 -985.929,475.642l282.296,2588.69c14.792,135.584 360.512,265.959 808.908,265.959c82.459,0 168.384,-4.417 256.371,-14c566.429,-61.75 1003.46,-315.084 985.917,-475.625l-282.292,-2588.71c-14.796,-135.605 -360.5,-265.959 -808.896,-265.959Zm0,83.333c202.409,0 394.184,27.563 540,77.613c148.271,50.896 184.938,103.7 186.063,114.046l282.291,2588.68c0.584,5.25 -6.125,28.5 -43.041,65.375c-41.667,41.583 -106,85.291 -186.084,126.291c-185.391,94.959 -434.329,165 -682.995,192.125c-82.213,8.959 -165.434,13.5 -247.334,13.5c-202.408,0 -394.183,-27.541 -540.004,-77.625c-148.275,-50.875 -184.933,-103.708 -186.058,-114.041l-282.3,-2588.68c-0.571,-5.234 6.112,-28.471 43.054,-65.359c41.658,-41.6 106.008,-85.275 186.091,-126.3c185.38,-94.971 434.317,-164.988 682.976,-192.108c82.22,-8.963 165.437,-13.509 247.341,-13.509Z" style="fill:#231f20;fill-rule:nonzero;"/><path d="M3380.25,1742.98c7.242,66.396 -40.713,126.087 -107.109,133.329c-66.391,7.242 -126.083,-40.712 -133.325,-107.108c-7.241,-66.396 40.713,-126.088 107.105,-133.329c66.4,-7.238 126.091,40.712 133.329,107.108Z" style="fill:#231f20;fill-rule:nonzero;"/><path d="M4287.87,3778.09c-25.829,3.45 -253.679,34.129 -299.442,50.908c-32.471,11.967 -94.771,3.858 -116.033,-0.258c-10.875,-2.163 -21.463,4.979 -23.575,15.896c-2.125,10.899 4.979,21.437 15.879,23.57c2.846,0.559 57.163,10.963 104.242,5.829c11.9,-1.3 23.329,-3.587 33.354,-7.287c35.204,-12.896 221.912,-39.579 290.912,-48.779c11,-1.467 18.75,-11.592 17.25,-22.6c-1.458,-11.017 -11.671,-18.625 -22.587,-17.279Z" style="fill:#030404;fill-rule:nonzero;"/><path d="M4179.96,3118.05l-730.425,112.875" style="fill:#ed1f27;fill-rule:nonzero;"/><path d="M3571.52,3206.39l78.166,-230.459" style="fill:#ed1f27;fill-rule:nonzero;"/><path d="M3673.72,3196.27l147.808,-234.067" style="fill:#ed1f27;fill-rule:nonzero;"/><path d="M3844.18,3169.92l99.85,-184.758" style="fill:#ed1f27;fill-rule:nonzero;"/><path d="M3981.03,3148.79l53.65,-128.72" style="fill:#ed1f27;fill-rule:nonzero;"/><path d="M3981.03,3148.79l93.838,101.084" style="fill:#ed1f27;fill-rule:nonzero;"/><path d="M3844.18,3169.92l126.609,163.729" style="fill:#ed1f27;fill-rule:nonzero;"/><path d="M3673.72,3196.27l93.233,130.937" style="fill:#ed1f27;fill-rule:nonzero;"/><path d="M3571.52,3206.39l67.312,153.295" style="fill:#ed1f27;fill-rule:nonzero;"/><path d="M2745.37,3307.72l644.504,-70.288" style="fill:#ed1f27;fill-rule:nonzero;"/><path d="M3246.65,3253.05l-100.683,-199.925" style="fill:#ed1f27;fill-rule:nonzero;"/><path d="M3112.38,3267.7l-67.792,-206.259" style="fill:#ed1f27;fill-rule:nonzero;"/><path d="M2984.08,3281.68l-117.854,-122.562" style="fill:#ed1f27;fill-rule:nonzero;"/><path d="M2984.08,3281.68l-86.862,161.617" style="fill:#ed1f27;fill-rule:nonzero;"/><path d="M3112.38,3267.7l-94.9,186.733" style="fill:#ed1f27;fill-rule:nonzero;"/><path d="M3246.65,3253.05l-71.321,159.913" style="fill:#ed1f27;fill-rule:nonzero;"/><path d="M3581.4,3000.4l13.758,1.658" style="fill:#fff;fill-rule:nonzero;"/><path d="M4075.21,3220.68l-53.655,-57.8l116.717,-18.033c-14.542,20.3 -35.592,47.104 -63.062,75.833Zm-194.25,-36.07l92.6,-14.309l73.029,78.667c-21.013,19.546 -44.863,39.154 -71.413,57.479l-94.216,-121.837Zm-418.684,-22.326l-2.287,-20.975c18.862,-20.825 82.658,-87.741 155.67,-127.629l-61.287,180.688l-87.129,13.466l-4.967,-45.55Zm-55.258,-44.391c-6.184,0.675 -11.908,2.591 -17.154,5.254c-17.621,-17.308 -89.467,-78.883 -221.263,-88.783c-76.625,-97.392 -108.579,-190.067 -94.858,-275.496c11.254,-70.067 51.571,-120.825 80.833,-149.446c0.834,63.058 12.079,119.479 32.879,169.404c0.325,1.213 0.9,2.283 1.446,3.417c16.509,38.542 38.634,73.262 67.063,103.487c89.837,95.5 214.554,123.263 280.512,131.371c-58.604,43.654 -101.829,91.904 -110.916,102.354c-5.884,-1.604 -12.121,-2.262 -18.542,-1.562Zm-54.342,300.471c13.379,-12.071 24.163,-24.221 32.796,-35.705l6.267,57.48c-7.863,-5.488 -20.879,-13.609 -39.063,-21.775Zm-571.791,-94.292l167.387,-18.254l-59.296,110.325c-53.917,-30.109 -89.021,-67.521 -108.091,-92.071Zm84.587,-136.721l75.746,78.775l-156.471,17.067c17.354,-25.2 44.721,-60.959 80.725,-95.842Zm497.154,-14.2l5.071,46.471l-109.363,11.921l-78.512,-155.896c106.2,11.567 164.621,59.7 180.308,74.637l2.496,22.867Zm-229.116,-100.037l82.137,163.087l-89.258,9.734l-55.488,-168.83c2.767,-0.387 5.513,-0.841 8.308,-1.145c19.167,-2.092 37.159,-2.871 54.301,-2.846Zm-102.196,12.341l54.212,164.938l-93.8,10.229l-96.325,-100.179c38.292,-31.838 83.967,-60.1 135.913,-74.988Zm-48.259,367.925l-5.65,-1.871c-18.816,-4.845 -36.1,-10.95 -52.229,-17.749l71.609,-133.23l80.829,-8.816l-78.063,153.604c-0.179,0.358 -0.15,0.75 -0.308,1.117c-5.346,2.279 -10.734,4.595 -16.188,6.945Zm72.775,-30.029l69.542,-136.846l88.646,-9.666l-52.542,117.816c-36.275,5.155 -70.604,15.409 -105.646,28.696Zm252.809,-20.717c-27.8,-7.625 -61.796,-12.72 -101.438,-11.774l53.104,-119.071l111.75,-12.184l5.934,54.434c-3.8,11.304 -20.234,52.054 -69.259,88.487c-0.033,0.029 -0.05,0.079 -0.091,0.108Zm-402.65,-496.67c-7.754,-71.096 20.687,-130.471 84.529,-176.471c20.329,-14.65 41.208,-25.592 58.896,-33.488c-6.584,17.23 -12.013,35.75 -15.292,55.904c-14.513,89.201 13.608,183.667 83.337,281.196c-13.712,0.413 -27.833,1.259 -42.608,2.871c-33.296,3.629 -64.508,12.263 -93.508,24.275c-43.571,-44.875 -69.071,-96.654 -75.354,-154.287Zm115.504,-380.275c28.2,-43.605 68.871,-68.184 108.879,-65.679c19.146,1.187 36.171,8.541 50.154,21.099c0.192,0.205 0.434,0.346 0.634,0.542c5.358,4.9 10.295,10.517 14.666,16.95c-6.854,5.204 -14.696,11.767 -21.004,18.696c-10.646,11.808 -15.413,26.875 -17.537,36.667c-15.38,11.4 -51.588,41.379 -81.505,89.091c-15.204,4.804 -49.362,17.03 -85.983,39.379c-5.262,-34.079 -7.183,-96.608 31.696,-156.745Zm360.162,-152.542c91.459,-9.971 149.713,34.05 176.338,61.113c-47.863,4.383 -83.95,15.92 -86.996,16.933c-0.483,0.162 -0.813,0.533 -1.275,0.725c-0.683,0.283 -1.379,0.446 -2.033,0.804c-0.396,0.221 -0.671,0.596 -1.05,0.846c-0.175,0.108 -0.313,0.271 -0.484,0.387c-1.12,0.767 -2.162,1.525 -3.091,2.484c-0.359,0.371 -0.842,0.541 -1.175,0.946c-9.825,11.758 -19.592,21.974 -29.317,31.233c-21.412,-41.033 -55.179,-61.917 -95.908,-57.475c-54.905,5.987 -83.821,37.325 -98.134,61.167c-5.337,-10.371 -11.516,-19.838 -18.579,-28.167c15.234,-24.325 60.558,-79.967 161.704,-90.996Zm397.859,241.696c2.095,27.725 -5.48,54.358 -21.742,78.587c-37.408,-134.633 -136.592,-181.971 -157.346,-190.479c-4.875,-8.637 -11.137,-16.375 -18.791,-23.158c-2.526,-2.238 -5.146,-4.308 -7.834,-6.233c43.592,-2.584 94.917,2.233 134.959,29.591c41.737,28.521 67.525,69.229 70.754,111.692Zm82.683,197.375c5.35,49.008 -18.683,99.141 -61.208,128.354c-21.975,-1.037 -44.775,-0.962 -68.35,0.379c26.875,-38.404 46.658,-97.2 36.916,-186.529c-0.391,-3.592 -1.112,-6.796 -1.583,-10.296c11.683,-12.012 21.625,-24.825 29.454,-38.362c21.9,16.487 58.821,51.866 64.771,106.454Zm182.562,235.95c38.534,20.071 68.646,40.779 89.05,56.658l-120.424,18.608l31.374,-75.266Zm-91.216,-38.333c19.504,6.399 37.892,13.4 54.912,20.883l-41.654,99.921l-85.696,13.241l72.438,-134.045Zm-121.667,-26.351c29.125,3.109 56.446,8.338 82.179,14.855l-82.816,153.245l-116.917,18.067l117.554,-186.167Zm-463.021,-154.974c41.438,-4.521 75.179,-19.184 100.871,-35.326c94.388,-59.304 143.283,-174.975 143.296,-237.908c38.938,25.271 103.558,84.383 116.546,203.504c9.429,86.438 -10.771,151.955 -58.409,189.471c-0.108,0.084 -0.145,0.208 -0.25,0.292c-9.758,2.358 -19.437,5.496 -29.058,9.054c-0.475,0.204 -0.958,0.321 -1.416,0.558c-16.801,6.313 -33.271,14.188 -49.221,23.175l-7.409,-0.896c-0.375,-0.049 -0.712,0.109 -1.083,0.084c-0.429,-0.029 -0.804,-0.234 -1.242,-0.234c-1.816,-0.008 -183.762,-2.316 -296.429,-122.341c-12.804,-13.642 -24.229,-28.325 -34.321,-43.979c44.459,14.925 83.95,18.27 118.125,14.546Zm-171.783,-178.426c33.679,22.438 86.5,50.067 138.529,46.313c33.817,-2.575 62.283,-17.35 84.929,-44.317c60.796,-72.383 74.488,-131.025 76.921,-161.771c16.688,1.005 41.192,5.117 57.517,19.584c11.617,10.296 17.483,24.529 17.925,43.491c1.029,45.109 -39.721,152.434 -124.567,205.742c-65.396,41.109 -141.354,40.963 -225.771,-0.158c-13.179,-33 -21.716,-69.313 -25.483,-108.884Zm71.813,-129.545c7.433,-15.513 27.137,-44.504 72.137,-49.413c31.025,-3.379 49.137,19.35 59.662,43.454c-25.624,17.35 -50.791,26.042 -75.262,25.292c-22.792,-0.713 -42.017,-9.521 -56.537,-19.333Zm-64.251,23.758c3.959,-4.354 9.401,-8.933 14.576,-12.904c18.1,18.291 54.212,46.896 104.408,48.662c6.75,0.238 13.487,-0.008 20.233,-0.741c34.863,-3.8 69.679,-20.896 104.096,-50.463c-8.963,25.671 -25.958,58.959 -58.208,97.363c-15.6,18.566 -34.354,28.383 -56.942,30.058c-55.667,4.067 -117.8,-41.471 -137.933,-57.608c0.045,-10.342 0.279,-20.804 0.895,-31.521c0.342,-3.346 2.692,-15.984 8.875,-22.846Zm394.542,643.15l66.363,-195.642c12.125,-3.875 24.283,-6.741 36.329,-8.054c29.312,-3.196 57.4,-4.075 84.341,-3.287l-124.616,197.337l-62.417,9.646Zm600.321,-65.033c0.5,-2.392 0.667,-4.817 0.333,-7.213c-0.041,-0.075 0,-0.142 0,-0.217c-0.041,-0.379 -0.291,-0.662 -0.375,-1.029c-0.416,-1.954 -1.083,-3.816 -2.083,-5.591c-0.417,-0.771 -0.917,-1.417 -1.458,-2.121c-0.542,-0.713 -0.875,-1.521 -1.5,-2.175c-6.25,-6.438 -128.763,-130.363 -338.567,-158.6c33.996,-37.592 51.758,-87.921 46.338,-137.613c-8.342,-76.479 -62.505,-122.129 -88.434,-139.879c5.279,-18.208 7.304,-37.091 5.858,-56.171c-4.145,-54.704 -36.275,-106.408 -88.158,-141.866c-37.446,-25.584 -81.483,-35.146 -122.621,-36.996c-0.246,-0.434 -0.275,-0.929 -0.554,-1.35c-3.154,-4.704 -78.862,-115.017 -230.979,-98.434c-111.137,12.121 -165.925,71.826 -188.104,104.68c-16.825,-10.334 -35.8,-16.7 -56.325,-17.979c-54.692,-3.455 -108.95,27.995 -145.146,83.987c-54.433,84.196 -41.775,170.967 -34.013,203.854c-52.304,42.092 -98.141,106.925 -87.708,202.625c6.834,62.642 32.771,119.15 77.175,168.342c-133.721,73.267 -211.304,211.846 -215.442,219.366c-0.558,1.017 -0.887,2.105 -1.258,3.184c-0.125,0.354 -0.308,0.667 -0.412,1.033c-0.642,2.259 -0.796,4.588 -0.625,6.908c0.016,0.259 -0.096,0.48 -0.067,0.738c0.029,0.279 0.2,0.496 0.246,0.775c0.333,2.25 0.912,4.471 2.016,6.533c0.021,0.034 0.109,0.192 0.134,0.234c0.025,0.041 0.046,0.083 0.071,0.129c3.716,6.866 61.725,109.821 198.429,159.912c-75.192,30.975 -162.142,61.171 -278.3,73.838c-11.042,1.204 -19.017,11.129 -17.813,22.175c1.209,11.042 11.129,19.012 22.175,17.808c150.196,-16.379 252.363,-60.375 342.5,-99.208c65.413,-28.171 121.9,-52.504 182.675,-59.133c125.996,-13.742 196.221,43.812 197.321,44.725l46.558,37.387c4.334,3.479 9.659,4.871 14.771,4.313c5.117,-0.555 10.03,-3.067 13.509,-7.396c6.95,-8.663 5.571,-21.33 -3.092,-28.271l-10.542,-8.463l-17.608,-161.5l-15.808,-144.962c-0.592,-5.421 3.337,-10.321 8.766,-10.913c5.425,-0.591 10.321,3.346 10.913,8.767l15.808,144.962l15.992,146.646c1.204,11.046 11.129,19.021 22.171,17.817c11.046,-1.204 19.021,-11.133 17.816,-22.175l-8.954,-82.075c15.075,12.929 34.367,26.283 58.733,37.688c10.071,4.683 22.042,0.379 26.742,-9.696c4.704,-10.063 0.367,-22.025 -9.696,-26.746c-52.712,-24.658 -77.179,-60.017 -83.271,-69.958l-6.024,-55.242l90.05,-13.917l58.758,133.829c3.616,8.234 12.1,12.825 20.596,11.9c1.983,-0.216 3.983,-0.737 5.912,-1.579c10.171,-4.458 14.783,-16.325 10.325,-26.508l-54.446,-124l61.742,-9.542l86.017,120.821c4.37,6.15 11.583,9.092 18.579,8.325c3.312,-0.358 6.571,-1.538 9.471,-3.608c9.05,-6.438 11.158,-18.996 4.716,-28.046l-74.3,-104.363l126.521,-19.554l105.567,136.521c-4.813,2.842 -9.571,5.729 -14.538,8.458c-9.741,5.346 -13.291,17.571 -7.95,27.309c4.042,7.337 11.984,11.166 19.825,10.308c2.546,-0.279 5.1,-1.046 7.488,-2.367c12.587,-6.912 24.533,-14.245 36.171,-21.741c0.316,-0.217 0.679,-0.325 0.987,-0.563c0.079,-0.062 0.104,-0.154 0.184,-0.216c139.654,-90.384 211.004,-215.738 214.212,-221.471c0.583,-1.055 0.833,-2.2 1.208,-3.313c0.25,-0.725 0.625,-1.379 0.792,-2.137Z" style="fill:#fff;fill-rule:nonzero;"/><path d="M3029.73,4032.82c-134.008,-138.463 -332.983,-77.504 -341.392,-74.879c-10.595,3.354 -16.458,14.662 -13.104,25.25c3.359,10.587 14.73,16.425 25.238,13.096c1.846,-0.542 183.496,-56.234 300.358,64.512c10.038,10.362 21.321,20.133 33.521,29.046c4.217,3.079 9.233,4.271 14.033,3.75c5.429,-0.596 10.6,-3.388 14.071,-8.142c6.546,-8.967 4.583,-21.554 -4.383,-28.096c-10.363,-7.566 -19.9,-15.816 -28.342,-24.537Z" style="fill:#fff;fill-rule:nonzero;"/><path d="M3863.54,3818.57l-6.021,-4.75c-14.392,-11.534 -171.454,-137.709 -290.65,-233.45c-8.663,-6.959 -21.313,-5.58 -28.271,3.083c-6.958,8.658 -5.579,21.317 3.088,28.271c119.195,95.771 276.287,221.946 290.662,233.462l6.35,5.017c22.75,17.875 83.196,65.35 87.792,105.5c1.133,9.929 -1.409,18.375 -8.021,26.604c-9.584,11.934 -20.963,18.046 -33.358,19.6c-27.621,2.704 -56.088,-18.108 -62.221,-22.891c-12.83,-10.759 -25.642,-19.863 -35.534,-26.851c-4.35,-3.087 -7.896,-5.574 -10.129,-7.354l-95.846,-77l-25.187,31.359l95.846,76.995c2.683,2.159 6.883,5.163 12.091,8.842c20.413,14.433 68.225,48.229 72.288,77.213c1.004,7.191 -1.025,13.641 -6.367,20.308c-8.229,10.225 -17.183,15.625 -27.354,16.133c-20.692,1.309 -43.675,-16.287 -50.779,-23.166c-0.033,-0.034 -0.084,-0.042 -0.121,-0.071c-6.358,-6.729 -13.358,-13.454 -21.783,-20.221l-115.325,-92.683l-25.188,31.354l115.325,92.7c18.792,15.071 30.738,29.379 35.5,42.504c4.788,13.163 2.208,24.871 -8.341,38.008c-17.559,21.834 -48.475,10.834 -59.046,6.167c-5.709,-7.662 -12.296,-14.858 -20.055,-21.079c-26.8,-21.529 -96.35,-84.534 -97.054,-85.167c-8.241,-7.475 -20.958,-6.846 -28.404,1.409c-7.454,8.225 -6.829,20.941 1.409,28.404c2.891,2.608 71.129,64.441 98.862,86.725c11.429,9.166 19.854,21.333 23.108,33.333c3.484,12.833 0.988,24.25 -7.596,34.958c-3.566,4.459 -7.954,6.375 -13.841,7.292c-13.425,1.375 -46.046,-4.708 -113.5,-60.667c-8.534,-7.083 -21.213,-5.875 -28.308,2.667c-7.096,8.542 -5.913,21.208 2.637,28.292c60.879,50.541 107.733,73.337 143.217,69.754c0.175,-0.042 0.362,-0.042 0.533,-0.088c16.417,-1.791 30.442,-9.375 40.613,-22.041c13.608,-16.959 19.5,-36.959 17.395,-57.5c6.817,0.708 13.859,0.916 20.95,0.125c18.042,-1.959 36.188,-9.667 50.434,-27.417c14.058,-17.458 20.491,-36.375 19.262,-55.571c7.154,1.571 14.563,2.609 22.342,2.146c1.208,-0.067 2.417,-0.171 3.6,-0.296c20.183,-2.2 38.404,-12.8 52.862,-30.812c12.259,-15.25 17.384,-32.925 14.834,-51.075c-0.7,-4.996 -2.046,-9.871 -3.755,-14.663c5.338,0.442 10.784,0.509 16.301,-0.017c0.404,-0.037 0.829,-0.087 1.233,-0.133c23.429,-2.55 43.55,-14.104 59.808,-34.337c13.4,-16.663 18.996,-35.642 16.625,-56.371c-6.516,-56.838 -74.062,-109.892 -102.912,-132.554Z" style="fill:#fff;fill-rule:nonzero;"/><path d="M3491.82,4172c-15.746,56.25 -78.33,132.667 -111.6,136.292c-4.217,0.458 -6.309,-0.584 -8.142,-2.25c-17.217,-15.917 3.058,-67.209 49.296,-124.667c20.737,-25.771 42.167,-42.158 57.308,-43.808c5.158,-0.563 9.321,0.608 13.5,3.82c3.254,2.488 4.529,13.146 -0.362,30.613Zm-245.317,90.917c-27.758,-22.292 10.708,-95.667 61.138,-158.509c7.566,-9.412 17.566,-21.85 28.579,-33.904c0.458,-0.562 1.091,-0.9 1.496,-1.521c0.054,-0.087 0.091,-0.162 0.149,-0.245c18.196,-19.675 38.93,-37.905 56.059,-39.771c5.967,-0.65 10.912,0.912 16.029,5.046c8.192,6.616 12.483,14.254 13.521,24.054c4.133,39.17 -44.225,98.812 -64.879,124.266l-4.984,6.167c-2.529,3.167 -5.25,6.625 -8.17,10.375c-19.725,25.208 -52.73,67.417 -79.821,70.375c-6.775,0.712 -12.846,-1.287 -19.117,-6.333Zm-100.271,-66.375c-25.817,-20.709 10.683,-89.921 58.292,-149.275c47.646,-59.221 78.75,-78.321 100.862,-61.938c8.346,6.179 25.45,18.992 -0.025,59.492c-9.9,10.937 -19.6,22.604 -29.087,34.4c-21.496,26.787 -47.579,63.379 -63.888,100.029c-15.216,15.917 -42.083,36.625 -66.154,17.292Zm-82.408,-74.746c-11.296,-9.071 -2.396,-33.671 3.925,-47.525c12.283,-26.946 32.754,-54.163 43.85,-67.984l4.567,-5.7c15.008,-18.816 40.133,-50.308 57.229,-52.17c2.154,-0.238 4.862,-0.088 8.65,2.804c3.895,2.971 5.925,6.733 6.583,12.179c2.987,24.579 -22.396,68.837 -48.888,101.8l-6.329,8.042c-13.766,17.591 -39.387,50.35 -58.296,52.396c-2.662,0.295 -6.354,0.129 -11.291,-3.842Zm410.5,-24.217c-6.109,0.667 -12.075,2.446 -17.942,4.667c5.709,-16.213 8.758,-32.625 7.096,-48.4c-2.171,-20.55 -11.675,-37.754 -28.25,-51.133c-13.358,-10.775 -29.146,-15.534 -45.663,-13.734c-10.629,1.163 -20.983,4.921 -31.12,10.5c-3.088,-22.721 -17.342,-37.75 -29.125,-46.475c-35.071,-25.979 -70.825,-12.337 -100.463,10.813c-0.079,-1.759 -0.087,-3.538 -0.3,-5.263c-1.958,-16.158 -9.6,-29.758 -22.1,-39.3c-11.175,-8.533 -24.117,-12.271 -37.425,-10.825c-33.737,3.679 -61.783,38.842 -84.304,67.075l-4.475,5.592c-12.279,15.279 -35,45.554 -49.108,76.491c-24.696,54.188 -9.554,81.871 7.491,95.567c12.142,9.754 26.267,14.054 40.838,12.471c6.725,-0.733 13.171,-2.983 19.458,-5.833c-4.375,26.541 0.579,50.833 22.104,68.125c16.259,13.041 34.754,18.375 53.834,16.291c7.316,-0.791 14.716,-2.833 22.108,-5.791c-0.563,21.708 6.104,41.25 24.333,55.875c14.717,11.833 31.084,16.837 48.659,14.916l0.008,0c20.162,-2.166 39.05,-13.625 56.042,-28.458c-2.075,20.75 2.662,39.917 18.741,54.792c10.805,10.004 24.563,14.416 39.821,12.75l0.004,0c58.646,-6.413 128.975,-104.75 145.963,-165.417c11.95,-42.692 -0.946,-63.475 -13.875,-73.4c-12.329,-9.463 -26.975,-13.571 -42.35,-11.896Z" style="fill:#030404;fill-rule:nonzero;"/><path d="M3318.44,3725.9c-9.509,-87.183 116.633,-201.492 177.258,-256.417c13.133,-11.916 23.517,-21.308 30.379,-28.383c41.125,-42.337 133.684,-75.033 247.625,-87.458c87.942,-9.588 165.009,23.054 214.154,52.1c61.667,36.521 241.809,17.57 261.642,15.458c11.042,-1.237 18.996,-11.179 17.75,-22.217c-1.25,-11.025 -11.167,-18.966 -22.167,-17.766c-0.833,0.075 -1.25,0.137 -1.916,0.208c-71.792,7.829 -197.4,11.871 -234.825,-10.3c-54.417,-32.171 -140.05,-68.258 -238.996,-57.467c-124.796,13.609 -223.975,49.838 -272.113,99.421c-5.97,6.134 -16.429,15.621 -28.554,26.6c-70.379,63.783 -201.233,182.35 -190.321,289.692c0.321,11.392 4.484,109.829 53.904,153.371c18.742,16.512 41.23,23.462 66.834,20.67c22.521,-2.454 39.95,-11.562 51.808,-27.079c25.492,-33.362 17.046,-86.654 10.259,-129.47c-2.638,-16.671 -6.259,-39.492 -4.646,-44.709c20.037,-32.516 65.641,-82.379 99.941,-86.117c11.042,-1.204 19.017,-11.129 17.813,-22.175c-1.204,-11.041 -11.129,-19.012 -22.171,-17.812c-57.292,6.25 -113.142,77.912 -129.821,104.987c-9.762,15.813 -6.016,39.43 -0.841,72.117c5.291,33.375 12.529,79.096 -2.488,98.754c-3.183,4.155 -9.154,9.879 -24.217,11.525c-14.279,1.554 -25.666,-1.896 -35.85,-10.841c-31.612,-27.796 -39.829,-99.571 -40.32,-124.888c-0.017,-0.596 -0.055,-1.212 -0.121,-1.804Z" style="fill:#030404;fill-rule:nonzero;"/><path d="M3197.92,1808.17l0,-104.167c232.8,0 462.404,-69.338 663.991,-200.521c196.475,-127.858 363.759,-312.037 483.8,-532.633l91.501,49.783c-128.292,235.742 -307.559,432.9 -518.484,570.158c-218.533,142.213 -467.788,217.38 -720.808,217.38Z" style="fill:#030404;fill-rule:nonzero;"/><path d="M306.296,2923.78l-5.088,51.5l177.65,17.555l5.088,-51.505c5.416,-54.858 -27.988,-94.337 -79.492,-99.425c-51.504,-5.091 -92.737,27.013 -98.158,81.875Zm219.446,21.68l-9.625,97.408l-261.242,-25.813l9.625,-97.404c8.113,-82.104 70.071,-133.267 143.967,-125.967c73.891,7.305 125.387,69.671 117.275,151.776Z" style="fill:#fff;fill-rule:nonzero;"/><path d="M375.092,2500.68l-30.313,145.375l66.813,13.929l26.871,-128.85l40.383,8.417l-26.871,128.854l69.017,14.392l30.695,-147.208l40.38,8.42l-40.113,192.363l-256.971,-53.588l39.73,-190.52l40.379,8.416Z" style="fill:#fff;fill-rule:nonzero;"/><path d="M588.754,2331.53l-0.471,1.421l-142.6,39.258l177.984,59l-14.275,43.071l-249.188,-82.6l15.458,-46.629l142.967,-36.767l-92.696,-114.883l15.459,-46.629l249.183,82.6l-14.512,43.783l-178.701,-59.237l91.392,117.612Z" style="fill:#fff;fill-rule:nonzero;"/><path d="M573.029,1942.96c-22.492,47.02 -0.633,97.795 45.713,119.966c46.346,22.163 100.591,6.954 123.083,-40.067c22.492,-47.025 0.637,-97.8 -45.708,-119.971c-46.35,-22.162 -100.596,-6.958 -123.088,40.072Zm206.7,98.858c-34.787,72.737 -114.2,97.108 -181.183,65.066c-66.988,-32.033 -98.208,-110.154 -63.425,-182.887c34.792,-72.738 114.208,-97.108 181.187,-65.067c66.984,32.034 98.213,110.154 63.421,182.888Z" style="fill:#fff;fill-rule:nonzero;"/><path d="M938.796,1755.55c-40.763,64.729 -121.592,81.192 -185.688,40.825c-63.466,-39.963 -85.412,-119.817 -43.05,-187.087c25.775,-40.938 55.642,-56.692 89.342,-65.163l13.087,43.25c-27.691,7.379 -50.787,19.425 -66.775,44.812c-26.775,42.522 -11.254,95.28 32.538,122.855c43.792,27.575 98.712,19.179 125.492,-23.346c17.183,-27.284 17.066,-51.733 11.287,-81.963l41.171,-9.083c9.529,38.354 8.775,73.329 -17.404,114.9Z" style="fill:#fff;fill-rule:nonzero;"/><path d="M925.646,1387.59l-41.604,52.67l69.145,54.625l41.838,-52.962c20.458,-25.892 19.938,-53.062 -1.246,-69.796c-22.658,-17.9 -46.979,-11.308 -68.133,15.463Zm207.183,93.425l-111.775,-6.104l-35.796,45.312l71.796,56.716l-28.592,36.188l-205.966,-162.704l72.521,-91.808c37.421,-47.371 85.446,-56.746 125.758,-24.896c34.129,26.958 38.687,63.533 23.854,98.645l121.904,5.984l-33.704,42.667Z" style="fill:#fff;fill-rule:nonzero;"/><path d="M1145.84,1157.03l42.787,105.934l63.696,-64.125l-106.483,-41.809Zm245.466,49.825l-34.358,34.592l-63.729,-25.771l-87.484,88.067l25.938,63.825l-33.3,33.529l-106.179,-268.283l30.129,-30.329l268.983,104.37Z" style="fill:#fff;fill-rule:nonzero;"/><path d="M1495.17,1121.44l-35.65,29.845l-141.055,-168.475l-63.824,53.434l-27.442,-32.771l163.3,-136.721l27.441,32.775l-63.825,53.434l141.055,168.479Z" style="fill:#fff;fill-rule:nonzero;"/><path d="M1494.13,791.871l153.763,212.775l-37.388,27.021l-153.766,-212.78l37.391,-27.016Z" style="fill:#fff;fill-rule:nonzero;"/><path d="M1823.9,895.104c-65.354,39.754 -145.038,18.434 -184.4,-46.279c-38.971,-64.075 -23,-145.329 44.917,-186.642c41.329,-25.137 75.087,-25.925 109.024,-18.475l-7.579,44.55c-28.075,-5.746 -54.116,-5.271 -79.745,10.321c-42.93,26.113 -52.571,80.255 -25.68,124.467c26.896,44.212 79.796,61.192 122.725,35.075c27.55,-16.754 38.35,-38.688 46.663,-68.317l40.896,10.234c-8.575,38.574 -24.854,69.537 -66.821,95.066Z" style="fill:#fff;fill-rule:nonzero;"/><path d="M2134.5,565.45c56.458,-8.662 90.733,-1.287 107.446,39.287c18.858,45.771 -5.713,87.534 -56.688,108.534c-37.104,15.287 -77.408,16.883 -117.25,2.879l13.088,-41.087c31.516,10.541 59.458,12.412 89.629,-0.017c26.354,-10.858 38,-29.85 30.283,-48.575c-7.283,-17.688 -20.85,-23.05 -70.216,-14.879c-56.809,8.804 -92.221,5.546 -110.792,-39.534c-17.429,-42.3 5.529,-85.02 53.729,-104.879c35.371,-14.575 67.887,-15.396 100.646,-5.775l-9.596,41.679c-28.567,-7.3 -53.979,-6.966 -76.171,2.179c-24.966,10.28 -34.246,29.113 -27.529,45.409c7.858,19.071 22.383,22.825 73.421,14.779Z" style="fill:#fff;fill-rule:nonzero;"/><path d="M2389.54,400.587c-50.063,14.504 -73.417,64.601 -59.125,113.942c14.296,49.342 61.741,79.713 111.804,65.212c50.062,-14.504 73.421,-64.599 59.125,-113.945c-14.292,-49.338 -61.738,-79.708 -111.804,-65.209Zm63.75,220.063c-77.438,22.433 -148.471,-20.625 -169.13,-91.942c-20.658,-71.316 16.876,-146.595 94.313,-169.029c77.438,-22.433 148.467,20.625 169.125,91.942c20.658,71.312 -16.875,146.596 -94.308,169.029Z" style="fill:#fff;fill-rule:nonzero;"/><path d="M2772.86,548.913c-75.445,12.62 -141.496,-36.784 -153.991,-111.492c-12.375,-73.963 32.645,-143.462 111.054,-156.575c47.708,-7.979 79.337,3.837 108.075,23.358l-23.588,38.542c-23.925,-15.767 -48.283,-25 -77.866,-20.046c-49.559,8.288 -78.63,54.971 -70.092,106.004c8.538,51.037 51.342,86.459 100.896,78.167c31.808,-5.317 49.983,-21.667 68.708,-46.088l34.167,24.704c-22.296,32.621 -48.917,55.321 -97.363,63.426Z" style="fill:#fff;fill-rule:nonzero;"/><path d="M2964.74,257.204l22.833,261.508l-45.954,4.013l-22.829,-261.508l45.95,-4.013Z" style="fill:#fff;fill-rule:nonzero;"/><path d="M3180.17,301.262l-43.279,105.713l90.358,-1.471l-47.079,-104.242Zm141.004,206.967l-48.742,0.792l-27.65,-62.925l-124.1,2.016l-25.962,63.801l-47.242,0.77l111.175,-266.196l42.742,-0.695l119.779,262.437Z" style="fill:#fff;fill-rule:nonzero;"/><path d="M3404.38,253.654l45.913,4.404l-21.046,219.48l137.362,13.174l-4.008,41.804l-183.275,-17.574l25.054,-261.288Z" style="fill:#fff;fill-rule:nonzero;"/><path d="M3713.1,292.046l-43.212,258.929l-45.5,-7.596l43.212,-258.925l45.5,7.592Z" style="fill:#fff;fill-rule:nonzero;"/><path d="M3889.61,442.079c50.734,26.238 74.096,52.371 63.721,95c-11.696,48.096 -56.137,67.388 -109.7,54.358c-38.987,-9.478 -72.508,-31.912 -96.471,-66.687l34.767,-25.504c19.271,27.071 40.758,45.033 72.454,52.746c27.696,6.737 48.288,-1.763 53.075,-21.442c4.521,-18.584 -3.291,-30.9 -48,-53.354c-51.1,-26.321 -77.808,-49.8 -66.287,-97.167c10.816,-44.45 54.516,-65.462 105.162,-53.146c37.167,9.042 63.933,27.513 84.754,54.576l-32.291,28.037c-18.792,-22.709 -39.529,-37.404 -62.85,-43.075c-26.234,-6.379 -44.817,3.375 -48.984,20.504c-4.875,20.038 4.659,31.616 50.65,55.154Z" style="fill:#fff;fill-rule:nonzero;"/><path d="M4106.06,666.304l-43.917,-15.262l72.125,-207.559l-78.629,-27.324l14.029,-40.38l201.204,69.912l-14.042,40.38l-78.625,-27.325l-72.145,207.558Z" style="fill:#fff;fill-rule:nonzero;"/><path d="M4397.21,621.379c44.834,35.4 62.792,65.505 44.5,105.387c-20.624,45.001 -67.916,55.492 -118.041,32.522c-36.458,-16.722 -65.125,-45.121 -82.042,-83.813l39,-18.438c13.75,30.242 31.458,51.963 61.125,65.563c25.875,11.875 47.708,7.446 56.167,-10.963c7.958,-17.387 2.625,-30.97 -37,-61.512c-45.167,-35.558 -66.917,-63.683 -46.588,-108.004c19.046,-41.587 65.963,-53.912 113.338,-32.192c34.791,15.938 57.541,39.167 72.833,69.692l-37.042,21.392c-14.125,-25.871 -31.666,-44.238 -53.5,-54.238c-24.541,-11.254 -44.666,-5.2 -52,10.821c-8.583,18.75 -1.421,31.929 39.25,63.783Z" style="fill:#fff;fill-rule:nonzero;"/><path d="M4826.67,781.088c-43.209,-29.13 -96.667,-14.942 -125.375,27.662c-28.708,42.6 -21.584,98.483 21.625,127.617c43.25,29.125 96.666,14.937 125.375,-27.667c28.708,-42.604 21.583,-98.487 -21.625,-127.612Zm-128.042,189.996c-66.875,-45.055 -79.333,-127.176 -37.833,-188.742c41.458,-61.575 123.333,-81.034 190.166,-35.975c66.875,45.049 79.334,127.171 37.875,188.746c-41.5,61.566 -123.333,81.025 -190.208,35.971Z" style="fill:#fff;fill-rule:nonzero;"/><path d="M5162.67,1048.04l-113.834,-96.534l-46.333,54.621l100.958,85.621l-27.166,32.029l-100.959,-85.621l-69.125,81.504l-35.166,-29.833l169.792,-200.183l149,126.371l-27.167,32.025Z" style="fill:#fff;fill-rule:nonzero;"/><path d="M5401.83,1313.71l-109,34.134l58.792,68.629l50.208,-102.763Zm-69.375,240.634l-31.708,-37.021l30.791,-61.446l-80.75,-94.258l-65.666,20.725l-30.75,-35.884l275.917,-84.27l27.791,32.462l-125.625,259.692Z" style="fill:#fff;fill-rule:nonzero;"/><path d="M5492.08,1671.89l-0.833,-1.25l56.708,-136.605l-155.958,104.109l-25.208,-37.738l218.333,-145.758l27.292,40.862l-58.917,135.358l147.625,-2.479l27.25,40.859l-218.333,145.754l-25.625,-38.363l156.583,-104.529l-148.917,-0.22Z" style="fill:#fff;fill-rule:nonzero;"/><path d="M5837.21,1961.52l-67.876,-132.084l-60.708,31.2l60.167,117.067l-36.709,18.858l-60.166,-117.07l-62.709,32.225l68.75,133.745l-36.708,18.859l-89.792,-174.775l233.459,-119.988l88.958,173.104l-36.666,18.859Z" style="fill:#fff;fill-rule:nonzero;"/><path d="M5917.38,2156.21l-24.292,-62.566l-82.166,31.896l24.458,62.92c11.958,30.759 35.625,44.096 60.791,34.321c26.917,-10.454 33.584,-34.758 21.209,-66.571Zm-185.583,131.205l61.958,-93.246l-20.917,-53.829l-85.291,33.116l-16.709,-42.992l244.709,-95.02l42.333,109.062c21.875,56.279 5.583,102.421 -42.292,121.017c-40.541,15.746 -74.375,1.129 -97.124,-29.463l-67.001,102.038l-19.666,-50.683Z" style="fill:#fff;fill-rule:nonzero;"/><path d="M6034.42,2372.05l-251.417,75.346l-13.25,-44.18l251.458,-75.349l13.209,44.183Z" style="fill:#fff;fill-rule:nonzero;"/><path d="M5828.54,2649.54c-16.042,-74.8 30.333,-143.038 104.375,-158.925c73.333,-15.725 144.833,26.083 161.5,103.816c10.125,47.3 -0.209,79.438 -18.417,109.034l-39.583,-21.805c14.666,-24.629 22.791,-49.379 16.499,-78.708c-10.541,-49.133 -58.499,-76.05 -109.124,-65.192c-50.584,10.85 -84.042,55.221 -73.5,104.355c6.791,31.533 23.916,48.945 49.167,66.541l-23.084,35.259c-33.625,-20.788 -57.5,-46.346 -67.833,-94.375Z" style="fill:#fff;fill-rule:nonzero;"/><path d="M6083.92,2907.52l-108.917,-34.4l8.917,89.929l100,-55.529Zm-194.625,157.625l-4.792,-48.509l60.417,-32.758l-12.25,-123.508l-65.75,-20.604l-4.667,-47.013l274.5,88.792l4.208,42.537l-251.666,141.063Z" style="fill:#fff;fill-rule:nonzero;"/><path d="M717.296,4289.38l36.562,72.708l-121.616,127.875l175.191,-21.375l35.888,71.375l-284.021,23.625l-30.329,-60.291l188.325,-213.917Z" style="fill:#fff;fill-rule:nonzero;"/><path d="M868.804,4580.25l114.579,177.333l-51.97,33.542l-75.5,-116.833l-33.392,21.583l68.383,105.833l-48.187,31.125l-68.384,-105.833l-34.962,22.583l76.525,118.417l-51.971,33.583l-115.596,-178.875l220.475,-142.458Z" style="fill:#fff;fill-rule:nonzero;"/><path d="M1010.4,4897.79l-49.158,-61.5l49.804,-39.792l143.733,179.875l-49.804,39.792l-49.158,-61.5l-155.276,124.041l-45.412,-56.833l155.271,-124.083Z" style="fill:#fff;fill-rule:nonzero;"/><path d="M1189.07,5014.21l147.404,151.167l-44.304,43.208l-97.134,-99.625l-28.458,27.75l87.971,90.209l-41.079,40.083l-87.971,-90.25l-29.804,29.083l98.441,100.959l-44.3,43.208l-148.708,-152.542l187.942,-183.25Z" style="fill:#fff;fill-rule:nonzero;"/><path d="M1399.82,5386.21c19.071,15.792 37.704,15.625 49.896,0.875l0.479,-0.583c13.146,-15.875 8.279,-33.542 -10.5,-49.083l-36.7,-30.334l-40.163,48.542l36.988,30.583Zm-12.721,-174.041l95.646,79.125c30.921,25.583 45.608,51.333 47.712,76.458c2.288,21.333 -4.554,41.958 -21.045,61.917l-0.48,0.583c-25.579,30.917 -59.025,37.792 -93.008,27.708l-10.071,110.417l-64.729,-53.542l9.938,-94.958l-0.58,-0.5l-23.983,-19.833l-50.679,61.25l-56.063,-46.375l167.342,-202.25Z" style="fill:#fff;fill-rule:nonzero;"/><path d="M1664.4,5618.5l16.029,-78.5l-65.438,46.5l49.409,32Zm33.971,-169.667l58.854,38.125l-49.967,282.667l-65.458,-42.417l9.437,-49.75l-84.97,-55.041l-41.225,29.125l-64.2,-41.584l237.529,-161.125Z" style="fill:#fff;fill-rule:nonzero;"/><path d="M1891.17,5571.08l60.908,29.959l35.688,172.166l61.229,-124.5l64.612,31.792l-115.841,235.542l-57.209,-28.125l-37.07,-178.709l-63.551,129.209l-64.612,-31.75l115.846,-235.584Z" style="fill:#fff;fill-rule:nonzero;"/><path d="M2086.89,5911.29l54.521,-31.75c17.333,28.208 40.804,48.25 69.374,58.541c18.342,6.625 30.509,3.834 34.33,-6.75l0.254,-0.708c3.696,-10.208 -2.379,-18.792 -33.088,-38.625c-48.229,-31 -83.441,-60.458 -65.108,-111.25l0.254,-0.708c16.558,-45.834 64.858,-65.875 124.121,-44.5c41.975,15.166 70.704,38.291 89.742,69.5l-51.663,35.958c-16.842,-24 -38.479,-41.417 -60.346,-49.292c-16.579,-6 -27.237,-1.875 -30.421,6.959l-0.258,0.708c-4.075,11.292 2.609,19.292 34.021,39.375c52.333,32.875 80.988,63.958 64.304,110.167l-0.254,0.708c-18.213,50.417 -68.896,66 -128.862,44.375c-43.738,-15.792 -80.392,-44.583 -100.921,-82.708Z" style="fill:#fff;fill-rule:nonzero;"/><path d="M2548.81,5832.13l75.854,12.458l20.525,157.292l74.696,-142.417l61.791,10.167l25.217,158.792l69.758,-142.459l74.375,12.25l-129.437,246.625l-62.534,-10.291l-27.679,-157.667l-76.3,140.625l-62.533,-10.292l-43.733,-275.083Z" style="fill:#fff;fill-rule:nonzero;"/><path d="M3181.7,6033.63l0.017,-0.75c0.992,-37.875 -25.513,-71.542 -65.625,-72.625c-39.733,-1 -67.192,30.542 -68.179,68.375l-0.017,0.75c-0.992,37.875 25.513,71.583 65.246,72.625c40.112,1.042 67.566,-30.5 68.558,-68.375Zm-208.421,-5.458l0.017,-0.75c1.971,-75.334 64.292,-134.834 145.263,-132.709c80.966,2.084 139.37,64 137.4,139.375l-0.021,0.75c-1.963,75.334 -64.288,134.834 -145.259,132.75c-80.966,-2.125 -139.371,-64.041 -137.4,-139.416Z" style="fill:#fff;fill-rule:nonzero;"/><path d="M3451.06,6015c24.655,-2.167 37.788,-15.375 36.109,-34.417l-0.067,-0.75c-1.817,-20.541 -17.679,-29.666 -41.958,-27.541l-47.438,4.208l5.542,62.75l47.812,-4.25Zm-131.362,-114.875l123.633,-10.917c39.971,-3.541 68.533,4.5 87.671,20.875c16.633,13.584 26.262,33.042 28.542,58.834l0.062,0.75c3.534,39.958 -15.417,68.375 -46.692,85.041l70.43,85.625l-83.667,7.417l-59.667,-74.542l-0.741,0.084l-31.005,2.708l6.996,79.208l-72.466,6.375l-23.096,-261.458Z" style="fill:#fff;fill-rule:nonzero;"/><path d="M3613.45,5870.29l71.325,-14.334l21,104.417l67.612,-122.25l84.567,-17l-75.179,130.25l130.246,126.458l-85.667,17.25l-83.933,-82.583l-20.267,34.292l13.383,66.541l-71.329,14.334l-51.758,-257.375Z" style="fill:#fff;fill-rule:nonzero;"/><path d="M3907.39,5804.75l70.237,-20.375l73.117,252.125l-70.234,20.375l-73.12,-252.125Z" style="fill:#fff;fill-rule:nonzero;"/><path d="M4050.87,5763.67l63.267,-24.584l150.945,90.209l-50.291,-129.334l67.125,-26.083l95.125,244.667l-59.417,23.125l-156.708,-93.625l52.166,134.25l-67.108,26.083l-95.104,-244.708Z" style="fill:#fff;fill-rule:nonzero;"/><path d="M4399.54,5765.33l-0.333,-0.666c-35.88,-67.584 -11.042,-148.709 60.833,-186.875c40.749,-21.625 76.25,-24.334 112.042,-16.167l-13.667,65.458c-23.959,-5.125 -44.75,-4.291 -67.583,7.834c-33.459,17.791 -44.376,59.666 -25.542,95.083l0.333,0.667c19.875,37.416 60.292,50.375 97.084,30.833c15.541,-8.25 25.708,-17.875 31.999,-29.292l-14.958,-28.166l-45.708,24.291l-25,-47.041l106.666,-56.625l55.417,104.333c-13.792,33.208 -39.625,66.917 -81.708,89.25c-72.209,38.333 -152.584,17.292 -189.875,-52.917Z" style="fill:#fff;fill-rule:nonzero;"/><path d="M4807.96,5528.42l-0.416,-0.625c-46.625,-60.667 -35.542,-144.792 29,-194.334c36.541,-28.083 71.125,-36.666 107.75,-34.541l-2.625,66.791c-24.459,-1.083 -44.834,3.209 -65.334,18.959c-30.041,23.083 -33.833,66.166 -9.375,98l0.417,0.583c25.833,33.625 67.833,39.667 100.833,14.292c14,-10.709 22.417,-21.917 26.709,-34.167l-19.417,-25.292l-41.042,31.5l-32.458,-42.208l95.792,-73.542l71.916,93.667c-8.083,35.042 -27.958,72.542 -65.75,101.542c-64.833,49.791 -147.583,42.416 -196,-20.625Z" style="fill:#fff;fill-rule:nonzero;"/><path d="M5157.13,5228.5c17.792,-17.208 19.708,-35.75 6.417,-49.5l-0.542,-0.542c-14.292,-14.833 -32.375,-11.958 -49.917,5l-34.249,33.084l43.75,45.291l34.541,-33.333Zm-174.375,-6.75l89.25,-86.208c28.875,-27.917 56.125,-39.625 81.292,-38.917c21.499,0.083 41.208,9.208 59.208,27.792l0.5,0.541c27.875,28.875 31,62.875 17.167,95.5l108.625,22.292l-60.417,58.375l-93.25,-20.458l-0.541,0.541l-22.375,21.625l55.208,57.167l-52.292,50.542l-182.375,-188.792Z" style="fill:#fff;fill-rule:nonzero;"/><path d="M5417.25,4949.29l-0.583,-0.5c-29.25,-24.042 -72.126,-23.875 -97.626,7.083c-25.249,30.708 -17.291,71.75 11.959,95.833l0.583,0.459c29.25,24.083 72.125,23.916 97.375,-6.75c25.5,-31 17.542,-72.042 -11.708,-96.125Zm-132.542,160.958l-0.542,-0.458c-58.208,-47.917 -66.791,-133.667 -15.291,-196.209c51.458,-62.541 136.208,-70.5 194.416,-22.583l0.584,0.5c58.167,47.875 66.75,133.667 15.292,196.208c-51.5,62.5 -136.25,70.459 -194.459,22.542Z" style="fill:#fff;fill-rule:nonzero;"/><path d="M5519.25,4840.88l-124.042,-79.583l39.876,-62.209l122.791,78.792c31.917,20.458 57.375,14.083 73.166,-10.542c15.792,-24.625 11.626,-50.041 -19.332,-69.875l-124.376,-79.791l39.917,-62.209l122.459,78.584c71.333,45.75 76.458,106.541 36.166,169.333c-40.292,62.833 -97.5,81.833 -166.625,37.5Z" style="fill:#fff;fill-rule:nonzero;"/><path d="M5726.08,4454.67c11.5,-23.167 6.375,-43.292 -12.083,-52.459l-0.667,-0.333c-20.166,-10 -37.916,-1.208 -49.583,22.333l-15.167,30.584l62.167,30.791l15.333,-30.916Zm-164.583,38.125l49.958,-100.792c29.5,-59.454 79.084,-82.625 131.125,-56.792l0.709,0.334c55.416,27.5 63.5,84.666 34.5,143.125l-15.959,32.25l67.209,33.291l-32.334,65.209l-235.208,-116.625Z" style="fill:#fff;fill-rule:nonzero;"/></g></svg>