<?xml version="1.0" encoding="UTF-8" standalone="no"?><!DOCTYPE svg PUBLIC "-//W3C//DTD SVG 1.1//EN" "http://www.w3.org/Graphics/SVG/1.1/DTD/svg11.dtd"><svg width="100%" height="100%" viewBox="0 0 1113 1075" version="1.1" xmlns="http://www.w3.org/2000/svg" xmlns:xlink="http://www.w3.org/1999/xlink" xml:space="preserve" xmlns:serif="http://www.serif.com/" style="fill-rule:evenodd;clip-rule:evenodd;stroke-linejoin:round;stroke-miterlimit:1.41421;"><g><path d="M972.617,815.583c-13.538,0.33 -132.967,3.338 -157.554,9.434c-17.45,4.346 -49.167,-3.346 -59.93,-6.671c-5.496,-1.733 -11.362,1.358 -13.066,6.875c-1.717,5.512 1.362,11.367 6.87,13.079c1.442,0.446 28.913,8.879 53.525,8.879c6.221,0 12.25,-0.533 17.642,-1.879c18.913,-4.683 116.863,-7.954 153.025,-8.817c5.759,-0.137 10.333,-4.929 10.188,-10.7c-0.134,-5.779 -4.984,-10.283 -10.7,-10.2Z" style="fill:#241f1f;fill-rule:nonzero;"/><path d="M954.054,468.538l-383.683,17.162" style="fill:#ed1f27;fill-rule:nonzero;"/><path d="M634.767,479.9l53.366,-114.65" style="fill:#ed1f27;fill-rule:nonzero;"/><path d="M688.133,480.429l89.538,-112.583" style="fill:#ed1f27;fill-rule:nonzero;"/><path d="M777.671,476.421l61.996,-89.817" style="fill:#ed1f27;fill-rule:nonzero;"/><path d="M849.554,473.213l34.975,-63.475" style="fill:#ed1f27;fill-rule:nonzero;"/><path d="M849.554,473.213l42.792,57.504" style="fill:#ed1f27;fill-rule:nonzero;"/><path d="M777.671,476.421l56.183,91.708" style="fill:#ed1f27;fill-rule:nonzero;"/><path d="M688.133,480.429l40.788,72.892" style="fill:#ed1f27;fill-rule:nonzero;"/><path d="M634.767,479.9l26.145,82.979" style="fill:#ed1f27;fill-rule:nonzero;"/><path d="M202.283,485.7l336.896,0" style="fill:#ed1f27;fill-rule:nonzero;"/><path d="M464.313,485.7l-40.75,-108.946" style="fill:#ed1f27;fill-rule:nonzero;"/><path d="M394.121,485.7l-23.388,-110.367" style="fill:#ed1f27;fill-rule:nonzero;"/><path d="M327.067,485.7l-53.979,-69.95" style="fill:#ed1f27;fill-rule:nonzero;"/><path d="M327.067,485.7l-53.979,78.588" style="fill:#ed1f27;fill-rule:nonzero;"/><path d="M394.121,485.7l-59.533,91.117" style="fill:#ed1f27;fill-rule:nonzero;"/><path d="M464.313,485.7l-45.85,78.588" style="fill:#ed1f27;fill-rule:nonzero;"/><path d="M651.479,374.046l7.017,1.633" style="fill:#ed1f27;fill-rule:nonzero;"/><path d="M894.167,515.654l-24.463,-32.875l61.313,-2.746c-8.654,9.667 -21.046,22.334 -36.85,35.621Zm-98.317,-29.575l48.638,-2.175l33.295,44.759c-11.95,8.908 -25.383,17.691 -40.12,25.666l-41.813,-68.25Zm-215.029,-35.112l0,-10.971c10.925,-9.692 47.641,-40.667 87.608,-57.15l-41.841,89.883l-45.767,2.042l0,-23.804Zm-26.05,-26.046c-3.234,0 -6.292,0.666 -9.154,1.746c-8.13,-9.934 -41.78,-45.788 -109.296,-58.329c-34.104,-54.625 -45.392,-104.3 -33.488,-147.655c9.763,-35.566 33.446,-59.512 50.171,-72.654c-3.117,32.621 -0.483,62.404 7.446,89.367c0.1,0.642 0.337,1.225 0.562,1.842c6.35,20.845 15.821,40.025 28.805,57.241c41.029,54.392 103.9,75.759 137.516,83.671c-32.733,19.246 -57.779,41.733 -63.062,46.617c-2.954,-1.163 -6.138,-1.846 -9.5,-1.846Zm-44.992,152.15c7.588,-5.484 13.842,-11.15 18.95,-16.592l0,30.038c-3.75,-3.267 -10.025,-8.2 -18.95,-13.446Zm-290.075,-80.917l87.5,0l-36.842,53.646c-26.162,-18.583 -42.183,-39.896 -50.658,-53.646Zm51.4,-65.867l34.692,44.963l-81.792,0c10.383,-12.038 26.533,-28.967 47.1,-44.963Zm257.625,20.68l0,24.283l-57.167,0l-31.775,-84.95c54.213,11.954 81.675,40.112 88.942,48.712l0,11.955Zm-112.725,-64.588l33.242,88.871l-46.65,0l-19.159,-90.333c1.459,-0.046 2.896,-0.13 4.359,-0.13c10.016,0 19.354,0.613 28.208,1.592Zm-53.487,0.621l18.716,88.25l-49.033,0l-44.113,-57.167c21.567,-14.287 46.763,-26.32 74.43,-31.083Zm-45.65,187.338l-2.821,-1.284c-9.446,-3.567 -18.034,-7.683 -25.975,-12.116l44.496,-64.784l42.245,0l-48.979,74.95c-0.104,0.179 -0.116,0.379 -0.216,0.563c-2.896,0.879 -5.813,1.762 -8.75,2.67Zm39.283,-11.408l43.633,-66.775l46.334,0l-33.771,57.896c-19.034,0.629 -37.35,3.987 -56.196,8.879Zm131.762,3.538c-13.933,-5.505 -31.208,-10.05 -51.733,-11.8l34.133,-58.513l58.417,0l0,28.45c-2.6,5.625 -13.383,25.75 -40.767,41.813c-0.016,0.016 -0.033,0.037 -0.05,0.05Zm-180.029,-279.25c0,-37.167 18.046,-66.234 53.613,-86.4c11.325,-6.421 22.733,-10.905 32.308,-13.98c-4.371,8.53 -8.216,17.792 -11.05,28.017c-12.517,45.258 -3.308,95.646 27.213,149.958c-7.104,-0.562 -14.446,-0.925 -22.171,-0.925c-17.408,0 -34.013,2.7 -49.667,7.275c-19.983,-25.629 -30.246,-53.825 -30.246,-83.945Zm81.1,-189.938c17.021,-20.933 39.413,-31.346 59.946,-27.8c9.817,1.7 18.2,6.454 24.708,13.725c0.096,0.125 0.213,0.208 0.309,0.325c2.487,2.833 4.721,6.008 6.621,9.575c-3.838,2.3 -8.263,5.25 -11.905,8.479c-6.175,5.496 -9.479,13.013 -11.133,17.95c-8.583,5.029 -28.975,18.471 -47.117,41.429c-8.129,1.625 -26.462,6.021 -46.633,15.5c-0.808,-17.9 1.725,-50.308 25.204,-79.183Zm194.65,-58.517c47.804,0 75.421,26.025 87.646,41.505c-24.966,-0.43 -44.262,3.5 -45.896,3.85c-0.254,0.05 -0.45,0.229 -0.7,0.304c-0.366,0.108 -0.733,0.15 -1.096,0.3c-0.216,0.091 -0.375,0.266 -0.587,0.379c-0.1,0.05 -0.183,0.121 -0.271,0.171c-0.625,0.333 -1.208,0.675 -1.733,1.108c-0.209,0.171 -0.467,0.233 -0.667,0.425c-5.733,5.517 -11.358,10.25 -16.896,14.479c-8.754,-22.404 -25.029,-35.087 -46.321,-35.087c-28.7,0 -45.395,14.554 -54.133,26.066c-2.175,-5.662 -4.833,-10.9 -8.017,-15.6c9.242,-11.708 35.788,-37.9 88.671,-37.9Zm191.904,147.271c-0.47,14.438 -5.891,27.771 -15.654,39.379c-11.737,-71.658 -60.316,-101.708 -70.55,-107.266c-2.037,-4.742 -4.829,-9.084 -8.412,-13.025c-1.175,-1.292 -2.404,-2.517 -3.692,-3.659c22.667,1.125 48.908,6.5 68.054,22.888c19.95,17.087 30.984,39.571 30.254,61.683Zm31.592,106.621c0,25.617 -15.233,50.167 -38.846,62.863c-11.296,-1.771 -23.071,-3.017 -35.333,-3.663c16.054,-18.321 29.583,-47.575 29.583,-94.275c0,-1.875 -0.183,-3.575 -0.233,-5.408c6.704,-5.55 12.567,-11.609 17.371,-18.154c10.383,9.75 27.458,30.104 27.458,58.637Zm81.021,132.175c18.779,12.533 33.167,24.933 42.817,34.275l-63.267,2.833l20.45,-37.108Zm-44.954,-24.942c9.704,4.4 18.808,9.059 27.187,13.88l-27.146,49.27l-45.016,2.009l44.975,-65.159Zm-61.375,-20.466c14.875,3.246 28.691,7.483 41.616,12.3l-51.416,74.5l-61.409,2.746l71.209,-89.546Zm-230.459,-106.142c21.659,0 39.921,-5.679 54.1,-12.567c52.105,-25.316 83.871,-82.316 87.425,-114.825c18.696,15.25 48.746,49.417 48.746,111.692c0,45.188 -14.129,77.892 -40.85,94.588c-0.062,0.033 -0.083,0.104 -0.145,0.133c-5.175,0.671 -10.351,1.75 -15.517,3.05c-0.259,0.071 -0.517,0.104 -0.771,0.204c-9.029,2.313 -17.983,5.45 -26.729,9.196l-3.775,-0.879c-0.196,-0.05 -0.379,0.016 -0.563,-0.017c-0.22,-0.042 -0.412,-0.167 -0.629,-0.192c-0.941,-0.108 -94.804,-11.545 -146.25,-79.9c-5.841,-7.766 -10.908,-15.995 -15.25,-24.658c22.134,10.217 42.342,14.175 60.209,14.175Zm-78.692,-101.85c16.133,13.488 41.862,30.733 68.95,31.725c17.616,0.579 33.158,-5.45 46.375,-18.104c35.483,-33.971 45.866,-63.496 48.854,-79.233c8.562,1.454 20.987,4.966 28.604,13.362c5.425,5.967 7.65,13.65 6.808,23.471c-2.008,23.362 -29.1,76.512 -75.941,99.267c-36.1,17.55 -75.325,13.195 -116.621,-12.8c-4.946,-17.788 -7.313,-37.03 -7.029,-57.688Zm44.396,-62.875c4.716,-7.6 16.529,-21.458 40.045,-21.458c16.221,0 24.305,12.758 28.375,25.808c-14.208,7.517 -27.704,10.596 -40.304,8.825c-11.737,-1.65 -21.171,-7.283 -28.116,-13.175Zm-34.53,8.658c2.292,-2.033 5.359,-4.091 8.263,-5.858c8.317,10.479 25.354,27.283 51.187,31.029c3.475,0.5 6.967,0.754 10.496,0.754c18.221,0 37.179,-6.866 56.621,-20.2c-6.075,12.75 -16.733,28.996 -35.554,47.013c-9.104,8.712 -19.354,12.733 -31.113,12.321c-28.983,-1.038 -58.52,-28.054 -68.008,-37.525c0.608,-5.346 1.321,-10.742 2.238,-16.242c0.362,-1.704 2.295,-8.1 5.87,-11.292Zm167.584,354.459l45.308,-97.321c6.483,-1.321 12.925,-2.117 19.217,-2.117c15.321,0 29.887,1.129 43.754,3.05l-75.483,94.917l-32.796,1.471Zm313.775,0.216c0.408,-1.2 0.621,-2.45 0.575,-3.7c0,-0.041 0.029,-0.075 0.016,-0.108c-0.004,-0.2 -0.116,-0.362 -0.133,-0.562c-0.1,-1.03 -0.342,-2.03 -0.75,-3c-0.175,-0.417 -0.408,-0.784 -0.642,-1.18c-0.229,-0.4 -0.366,-0.837 -0.658,-1.204c-2.854,-3.679 -59.167,-74.596 -165.954,-101.004c19.683,-17.496 31.687,-42.508 31.687,-68.475c0,-39.975 -25.408,-66.617 -37.8,-77.242c3.746,-9.112 5.863,-18.75 6.192,-28.683c0.933,-28.5 -12.746,-57.017 -37.55,-78.258c-17.908,-15.321 -40.112,-22.75 -61.267,-26.017c-0.1,-0.242 -0.083,-0.492 -0.208,-0.725c-1.367,-2.608 -34.254,-63.867 -113.771,-63.867c-58.1,0 -89.766,27.755 -103.079,43.484c-8.108,-6.292 -17.55,-10.646 -28.083,-12.467c-28.054,-4.867 -57.854,8.325 -79.709,35.217c-32.862,40.421 -31.208,85.958 -29.05,103.387c-29.395,18.8 -56.729,49.713 -56.729,99.734c0,32.745 10.217,63.395 30.384,91.312c-73.205,30.317 -121.088,97.525 -123.646,101.175c-0.35,0.496 -0.584,1.042 -0.838,1.575c-0.083,0.175 -0.187,0.325 -0.266,0.508c-0.463,1.142 -0.667,2.325 -0.713,3.542c-0.004,0.133 -0.071,0.238 -0.071,0.371c0,0.146 0.071,0.271 0.084,0.412c0.037,1.188 0.216,2.367 0.666,3.492c0.013,0.017 0.05,0.1 0.063,0.129c0.004,0.021 0.016,0.05 0.021,0.067c1.537,3.762 25.7,60.212 93.504,93.788c-40.588,11.774 -87.209,22.462 -147.934,22.462c-5.766,0 -10.45,4.683 -10.45,10.454c0,5.775 4.684,10.45 10.45,10.45c78.517,0 133.775,-16.971 182.525,-31.954c35.384,-10.867 65.925,-20.254 97.7,-20.254c65.867,0 98.9,33.687 99.417,34.216l21.942,21.938c2.041,2.037 4.716,3.062 7.383,3.062c2.679,0 5.363,-1.025 7.4,-3.062c4.075,-4.079 4.075,-10.7 -0.008,-14.771l-4.967,-4.967l0,-160.195c0,-2.838 2.308,-5.155 5.142,-5.155c2.846,0 5.146,2.317 5.146,5.155l0,152.429c0,5.775 4.679,10.45 10.454,10.45c5.775,0 10.45,-4.675 10.45,-10.45l0,-42.9c7.058,7.525 16.275,15.508 28.216,22.775c4.946,2.983 11.363,1.433 14.367,-3.504c2.992,-4.934 1.429,-11.355 -3.504,-14.363c-25.838,-15.708 -36.496,-35.35 -39.079,-40.833l0,-28.871l47.308,-2.121l22.817,72.442c1.404,4.466 5.525,7.308 9.966,7.308c1.034,0 2.092,-0.15 3.142,-0.479c5.5,-1.729 8.55,-7.596 6.825,-13.117l-21.142,-67.116l32.434,-1.455l37.625,67.259c1.908,3.425 5.471,5.35 9.137,5.35c1.729,0 3.479,-0.425 5.088,-1.325c5.046,-2.817 6.833,-9.192 4.025,-14.229l-32.509,-58.1l66.459,-2.967l46.841,76.467c-2.65,1.2 -5.266,2.42 -7.983,3.55c-5.333,2.216 -7.858,8.329 -5.642,13.662c1.667,4.008 5.559,6.438 9.655,6.438c1.32,0 2.695,-0.25 3.987,-0.796c6.908,-2.867 13.492,-5.975 19.925,-9.192c0.175,-0.096 0.371,-0.142 0.542,-0.242c0.046,-0.02 0.066,-0.07 0.112,-0.1c77.234,-38.82 121.15,-99.554 123.134,-102.337c0.366,-0.513 0.545,-1.096 0.812,-1.65c0.167,-0.354 0.383,-0.671 0.517,-1.063Z" style="fill:#f60e33;fill-rule:nonzero;"/><path d="M308.329,876.3c-61.425,-79.079 -167.646,-58.8 -172.133,-57.917c-5.663,1.138 -9.334,6.65 -8.196,12.313c1.133,5.65 6.679,9.308 12.3,8.183c0.983,-0.179 97.954,-18.712 151.521,50.242c4.6,5.925 9.883,11.608 15.679,16.892c2.004,1.833 4.533,2.733 7.038,2.733c2.845,0 5.675,-1.15 7.733,-3.417c3.879,-4.258 3.579,-10.875 -0.683,-14.75c-4.925,-4.496 -9.388,-9.308 -13.259,-14.279Z" style="fill:#f60e33;fill-rule:nonzero;"/><path d="M751.138,812.588l-2.842,-2.788c-6.783,-6.771 -80.813,-80.8 -136.996,-136.971c-4.083,-4.079 -10.696,-4.079 -14.779,0c-4.083,4.075 -4.083,10.692 0,14.771c56.179,56.196 130.229,130.229 137,136.983l3,2.95c10.746,10.517 39.296,38.438 39.412,59.446c0.03,5.188 -1.762,9.409 -5.645,13.288c-5.621,5.629 -11.842,8.146 -18.334,8.245c-14.425,-0.158 -27.954,-12.508 -30.858,-15.333c-6.017,-6.279 -12.125,-11.708 -16.834,-15.866c-2.083,-1.842 -3.775,-3.33 -4.829,-4.376l-45.171,-45.17l-14.779,14.783l45.179,45.171c1.259,1.262 3.259,3.05 5.742,5.25c9.733,8.6 32.533,28.75 33,43.958c0.1,3.771 -1.304,6.988 -4.437,10.133c-4.83,4.817 -9.755,7.1 -15.046,6.788c-10.754,-0.488 -21.634,-10.879 -24.921,-14.821c-0.017,-0.025 -0.038,-0.029 -0.054,-0.05c-2.9,-3.829 -6.146,-7.7 -10.117,-11.675l-54.358,-54.375l-14.771,14.783l54.354,54.384c8.85,8.837 14.225,16.904 15.946,23.954c1.729,7.071 -0.263,12.979 -6.454,19.162c-10.3,10.3 -25.65,2.867 -30.85,-0.141c-2.517,-4.271 -5.513,-8.359 -9.175,-12.017c-12.625,-12.633 -45.017,-49.092 -45.338,-49.458c-3.837,-4.329 -10.446,-4.725 -14.75,-0.879c-4.321,3.829 -4.716,10.433 -0.879,14.754c1.346,1.516 33.117,37.3 46.196,50.366c5.383,5.384 9.05,12.142 10.054,18.53c1.079,6.82 -0.858,12.587 -5.892,17.637c-2.091,2.092 -4.466,2.842 -7.566,2.983c-7.009,-0.05 -23.517,-5.02 -55.213,-37.733c-4.016,-4.15 -10.629,-4.233 -14.771,-0.233c-4.15,4.025 -4.25,10.641 -0.241,14.783c28.612,29.525 51.529,43.946 70.066,44.083c0.092,0 0.184,0 0.275,0c8.575,0 16.255,-3.137 22.221,-9.108c7.984,-7.979 12.154,-18 12.221,-28.729c3.492,0.762 7.117,1.254 10.825,1.254c9.425,0 19.238,-2.942 27.592,-11.308c8.246,-8.246 12.633,-17.646 13.079,-27.634c3.612,1.209 7.383,2.167 11.429,2.367c0.625,0.033 1.254,0.05 1.871,0.05c10.554,0 20.562,-4.45 29.046,-12.946c7.191,-7.179 10.837,-16.021 10.541,-25.55c-0.083,-2.616 -0.5,-5.204 -1.12,-7.783c2.737,0.529 5.545,0.871 8.429,0.912c0.208,0 0.425,0 0.641,0c12.25,0 23.296,-4.829 32.834,-14.366c7.862,-7.859 11.825,-17.346 11.762,-28.184c-0.166,-29.725 -32.066,-60.945 -45.696,-74.275Z" style="fill:#f60e33;fill-rule:nonzero;"/><path d="M539.196,974.233c-11.3,28.167 -47.942,64.117 -65.329,64.117c-2.204,0 -3.229,-0.662 -4.079,-1.638c-7.992,-9.183 5.366,-34.529 32.491,-61.608c12.159,-12.15 24.159,-19.404 32.071,-19.404c2.7,0 4.779,0.833 6.75,2.733c1.55,1.471 1.604,7.05 -1.904,15.8Zm-131.85,33.146c-13.092,-13.079 10.921,-48.817 40.508,-78.442c4.442,-4.437 10.313,-10.299 16.684,-15.908c0.266,-0.262 0.608,-0.4 0.85,-0.708c0.033,-0.038 0.062,-0.071 0.095,-0.117c10.504,-9.133 22.246,-17.375 31.2,-17.375c3.117,0 5.584,1.075 7.996,3.5c3.858,3.884 5.65,8.067 5.633,13.192c-0.079,20.467 -28.416,48.55 -40.516,60.546l-2.929,2.895c-1.48,1.488 -3.084,3.138 -4.805,4.9c-11.608,11.917 -31.033,31.855 -45.195,31.855c-3.538,-0.013 -6.567,-1.384 -9.521,-4.338Zm-48.067,-39.942c-12.158,-12.154 10.592,-45.85 38.534,-73.833c27.95,-27.904 45.087,-36.025 55.587,-26.308c3.963,3.658 12.083,11.241 -3.362,30.725c-5.734,5.1 -11.405,10.575 -16.959,16.133c-12.616,12.625 -28.15,30.058 -38.633,48.067c-8.767,7.375 -23.813,16.562 -35.167,5.216Zm-38.35,-43.258c-5.329,-5.317 0.659,-17.525 4.704,-24.329c7.863,-13.229 19.971,-26.133 26.48,-32.646l2.683,-2.687c8.804,-8.88 23.571,-23.721 32.5,-23.721c1.125,0 2.521,0.221 4.308,1.925c1.85,1.758 2.684,3.812 2.717,6.666c0.162,12.867 -15.45,34.296 -30.988,49.834l-3.72,3.796c-8.1,8.312 -23.184,23.795 -33.067,23.787c-1.396,0 -3.296,-0.292 -5.617,-2.625Zm213.421,10.621c-3.196,0 -6.371,0.583 -9.533,1.396c3.862,-8.05 6.362,-16.363 6.396,-24.609c0.033,-10.733 -3.909,-20.154 -11.713,-28c-6.296,-6.32 -14.179,-9.666 -22.817,-9.666c-5.55,0 -11.12,1.358 -16.67,3.666c-0.313,-11.904 -6.83,-20.475 -12.425,-25.641c-16.655,-15.4 -35.892,-10.367 -52.505,-0.075c0.063,-0.917 0.15,-1.834 0.146,-2.738c-0.1,-8.462 -3.291,-15.916 -9.208,-21.546c-5.292,-5.037 -11.771,-7.7 -18.725,-7.7c-17.633,0 -34.108,16.58 -47.329,29.9l-2.629,2.634c-7.2,7.208 -20.642,21.562 -29.671,36.75c-15.817,26.596 -9.554,41.758 -1.521,49.791c5.725,5.717 12.783,8.742 20.4,8.742c3.508,0 6.971,-0.8 10.375,-1.921c-3.754,13.479 -2.558,26.296 7.583,36.434c7.667,7.666 16.925,11.466 26.896,11.454c3.821,0 7.763,-0.625 11.738,-1.738c-1.505,11.171 0.833,21.638 9.429,30.221c6.933,6.942 15.112,10.45 24.3,10.463c10.537,0 20.937,-4.85 30.554,-11.555c-2.238,10.592 -0.875,20.775 6.592,29.371c5.016,5.767 11.875,8.821 19.854,8.821c30.662,0 72.529,-46.854 84.729,-77.237c8.575,-21.367 3.083,-32.838 -3.042,-38.688c-5.833,-5.592 -13.166,-8.529 -21.204,-8.529Z" style="fill:#241f1f;fill-rule:nonzero;"/><path d="M474.763,734.013c0,-45.575 71.6,-97.517 106.02,-122.476c7.454,-5.42 13.35,-9.683 17.288,-12.949c23.629,-19.555 73.292,-31.226 132.85,-31.226c45.966,0 83.942,21.2 107.692,38.976c29.799,22.341 123.92,22.695 134.283,22.712c5.771,-0.017 10.437,-4.696 10.421,-10.467c-0.017,-5.766 -4.688,-10.433 -10.45,-10.433c-0.417,-0.004 -0.663,0 -0.996,0c-37.534,0 -102.642,-4.983 -120.725,-18.546c-26.3,-19.687 -68.509,-43.15 -120.225,-43.15c-65.238,0 -118.509,13.129 -146.167,36.029c-3.437,2.834 -9.371,7.15 -16.254,12.134c-39.954,28.983 -114.229,82.862 -114.637,138.929c-0.48,5.908 -3.876,56.992 19.204,82.267c8.75,9.587 19.979,14.441 33.354,14.441c11.783,0 21.296,-3.716 28.296,-11.066c15.05,-15.8 13.683,-43.809 12.6,-66.309c-0.43,-8.762 -1.013,-20.75 0.116,-23.358c12.179,-15.658 38.55,-38.85 56.484,-38.85c5.766,0 10.45,-4.683 10.45,-10.454c0,-5.767 -4.684,-10.45 -10.45,-10.45c-29.95,0 -62.85,33.871 -72.98,46.921c-5.937,7.616 -5.337,20.025 -4.5,37.208c0.851,17.537 2.017,41.567 -6.854,50.871c-1.87,1.966 -5.283,4.587 -13.162,4.587c-7.454,0 -13.15,-2.421 -17.904,-7.616c-14.767,-16.142 -14.967,-53.684 -13.796,-66.792c0.025,-0.308 0.042,-0.625 0.042,-0.933Z" style="fill:#241f1f;fill-rule:nonzero;"/></g></svg>